<svg xmlns="http://www.w3.org/2000/svg" xmlns:xlink="http://www.w3.org/1999/xlink" width="2000" zoomAndPan="magnify" viewBox="0 0 1500 1499.999933" height="2000" preserveAspectRatio="xMidYMid meet" version="1.0"><defs><clipPath id="5f1a3a7574"><path d="M 0 150 L 1500 150 L 1500 1292 L 0 1292 Z M 0 150 " clip-rule="nonzero"/></clipPath></defs><g clip-path="url(#5f1a3a7574)"><path fill="#566e7e" d="M 67.738281 321.382812 C 68.210938 315.449219 68.808594 310.996094 68.871094 306.539062 C 69.113281 288.105469 69 269.625 69.394531 251.242188 C 69.828125 233.203125 77.921875 225.234375 95.746094 224.980469 C 106.808594 224.8125 117.871094 224.980469 128.933594 224.980469 C 133.425781 224.980469 137.917969 224.546875 143.660156 224.253906 C 144.082031 218.957031 144.667969 214.539062 144.71875 210.109375 C 144.855469 197.671875 144.375 185.210938 144.871094 172.785156 C 145.558594 155.933594 153.78125 148.050781 170.609375 150.316406 C 200.679688 154.316406 230.683594 159.242188 260.519531 164.804688 C 349.328125 181.375 436.484375 204.25 521.980469 233.433594 C 579.953125 253.175781 637.238281 274.777344 690.132812 306.449219 C 709.582031 318.097656 727.964844 331.046875 744.144531 346.996094 C 746.078125 348.890625 748.28125 350.523438 751.003906 352.824219 C 753.933594 350.113281 756.621094 347.796875 759.101562 345.277344 C 784.726562 319.179688 816.257812 301.816406 848.414062 285.789062 C 903.34375 258.421875 961.265625 238.601562 1019.605469 219.964844 C 1095.144531 196.015625 1171.914062 177.050781 1249.917969 163.074219 C 1276.648438 158.222656 1303.699219 155.5 1330.6875 152.558594 C 1347.351562 150.738281 1354.40625 157.574219 1354.988281 174.542969 C 1355.371094 186 1355.15625 197.585938 1355.296875 209.105469 C 1355.488281 224.140625 1356.261719 224.890625 1370.8125 224.941406 C 1383.25 225.003906 1395.714844 224.6875 1408.136719 225.195312 C 1423.3125 225.832031 1428.746094 230.65625 1431.140625 245.5625 C 1432.144531 251.929688 1431.953125 258.40625 1431.878906 264.835938 C 1431.714844 278.660156 1431.179688 292.472656 1431.011719 306.296875 C 1431.011719 310.804688 1431.574219 315.3125 1432.019531 321.777344 C 1440.0625 321.777344 1447.292969 321.777344 1454.449219 321.777344 C 1462.734375 321.777344 1470.996094 321.675781 1479.324219 321.96875 C 1491.378906 322.402344 1498.011719 328.472656 1499.09375 340.464844 C 1499.78125 348.242188 1499.78125 356.109375 1499.78125 363.9375 C 1499.703125 463.480469 1499.601562 563.019531 1499.472656 662.558594 C 1499.371094 843.195312 1499.292969 1023.835938 1499.234375 1204.484375 C 1499.234375 1232.351562 1492.5 1238.460938 1464.9375 1238.382812 C 1296.285156 1237.984375 1127.621094 1237.691406 958.949219 1237.503906 C 926.234375 1237.503906 893.503906 1237.503906 860.800781 1236.882812 C 852.871094 1236.714844 848.261719 1239.199219 843.832031 1245.628906 C 815.164062 1287.164062 774.148438 1297.070312 727.097656 1289.441406 C 708.832031 1286.476562 691.214844 1280.53125 676.699219 1268.335938 C 670.414062 1263.027344 663.246094 1257.605469 659.566406 1250.605469 C 653.773438 1239.554688 645.679688 1238.28125 634.667969 1238.28125 C 434.664062 1238.554688 234.667969 1238.632812 34.679688 1238.523438 C 31.917969 1238.523438 29.128906 1238.6875 26.378906 1238.523438 C 10.773438 1237.378906 0.917969 1227.449219 0.703125 1211.917969 C 0.421875 1192.097656 0.628906 1172.277344 0.628906 1152.46875 C 0.574219 886.566406 0.457031 620.683594 0.269531 354.824219 C 0.269531 329.363281 5.859375 319.015625 33.890625 321.242188 C 44.734375 322.109375 55.722656 321.382812 67.738281 321.382812 Z M 174.671875 180.425781 C 174.277344 187.171875 173.703125 192.53125 173.679688 197.890625 C 173.296875 271.164062 172.785156 344.425781 172.683594 417.699219 C 172.53125 517.679688 172.53125 617.667969 172.683594 717.664062 C 172.683594 784.949219 172.75 852.226562 172.875 919.5 C 172.875 927.785156 172.773438 936.046875 172.875 944.375 C 173.144531 960.449219 173.371094 960.554688 189.769531 963.46875 C 202.917969 965.773438 216.042969 968.242188 229.15625 970.75 C 291.164062 982.5625 352.164062 998.375 412.667969 1016.296875 C 519.984375 1048.121094 626.53125 1081.78125 726.476562 1133.335938 C 729.019531 1134.609375 732.101562 1134.609375 736.148438 1135.539062 C 736.148438 1129.046875 736.148438 1124.082031 736.148438 1118.988281 C 735.742188 1004.71875 735.316406 890.4375 734.875 776.148438 C 734.597656 649.433594 734.519531 522.710938 734.648438 395.980469 C 734.648438 384.957031 731.261719 376.644531 723.585938 369.042969 C 705.761719 351.335938 685.011719 337.601562 663.183594 325.660156 C 621.1875 302.632812 576.9375 284.480469 531.757812 268.414062 C 432.707031 233.164062 331.148438 207.308594 227.664062 189.003906 C 210.554688 185.976562 193.359375 183.441406 174.671875 180.425781 Z M 766.117188 1136.53125 C 770.964844 1134.558594 773.90625 1133.550781 776.683594 1132.191406 C 794.425781 1123.46875 811.765625 1113.769531 829.945312 1106.03125 C 911.359375 1071.34375 994.695312 1042.148438 1079.960938 1018.449219 C 1134.035156 1003.425781 1188.585938 990.074219 1243.105469 976.695312 C 1266.324219 970.992188 1290.027344 967.234375 1313.476562 962.375 C 1324.757812 960.03125 1325.113281 959.316406 1325.457031 947.683594 C 1325.53125 945.390625 1325.457031 943.074219 1325.457031 940.769531 C 1325.457031 800.195312 1325.863281 659.617188 1324.984375 519.054688 C 1324.820312 492.433594 1327.1875 467.941406 1344.617188 446.734375 C 1348.117188 442.46875 1348.90625 436.078125 1354.800781 432.554688 C 1354.800781 439.695312 1354.800781 445.664062 1354.800781 451.648438 C 1354.644531 585.738281 1354.496094 719.859375 1354.355469 854.015625 C 1354.355469 890.421875 1354.734375 926.84375 1354.75 963.25 C 1354.75 978.386719 1350.445312 983.847656 1335.984375 988 C 1332.441406 989.03125 1328.855469 989.878906 1325.226562 990.542969 C 1303.941406 994.363281 1282.507812 997.585938 1261.375 1002.128906 C 1129.238281 1030.554688 1000.550781 1070.375 874.945312 1120.1875 C 872.90625 1120.988281 871.1875 1122.605469 867.585938 1124.972656 C 928.472656 1114.789062 986.867188 1104.261719 1045.511719 1095.453125 C 1104.160156 1086.644531 1163.136719 1078.175781 1222.203125 1072.003906 C 1281.269531 1065.828125 1340.3125 1062.722656 1400.78125 1058.167969 C 1400.78125 1052.195312 1400.78125 1047.21875 1400.78125 1042.226562 C 1401.261719 817.773438 1401.6875 593.304688 1402.054688 368.816406 C 1402.054688 342.386719 1406.699219 317.730469 1417.863281 293.898438 C 1421.417969 286.359375 1423.6875 278.449219 1424.675781 270.171875 C 1426.277344 255.660156 1414.707031 243.09375 1400.664062 244.46875 C 1381.953125 246.316406 1363.238281 248.859375 1346.003906 257.65625 C 1339.765625 260.839844 1332.6875 262.378906 1324.691406 265.117188 C 1323.179688 236.5 1325.773438 209.972656 1323.660156 182.933594 C 1318.199219 183.238281 1314.535156 183.097656 1311.007812 183.707031 C 1276.101562 189.769531 1241.070312 195.164062 1206.367188 202.257812 C 1096.039062 224.738281 988.496094 256.410156 885.191406 301.640625 C 848.734375 317.601562 814.503906 337.28125 783.875 362.960938 C 770.929688 373.804688 763.925781 386.203125 764.066406 404.472656 C 764.765625 504.03125 763.9375 603.582031 764.066406 703.140625 C 764.269531 843.714844 764.695312 984.285156 765.339844 1124.859375 C 765.339844 1128.003906 765.746094 1131.148438 766.117188 1136.53125 Z M 1460.394531 1199.914062 C 1460.75 1192.582031 1461.171875 1188.050781 1461.171875 1183.503906 C 1461.296875 913.425781 1461.398438 643.347656 1461.476562 373.269531 C 1461.476562 357.117188 1460.941406 356.644531 1445.511719 356.976562 C 1432.859375 357.242188 1432.273438 357.816406 1431.902344 370.226562 C 1431.902344 372.53125 1431.902344 374.835938 1431.902344 377.140625 L 1430.53125 1137.601562 C 1430.53125 1143.136719 1430.605469 1148.675781 1430.25 1154.148438 C 1429.5625 1164.574219 1425.527344 1169.210938 1415.089844 1170.136719 C 1405.464844 1171.003906 1395.75 1171.03125 1386.078125 1171.03125 C 1188.832031 1170.917969 991.570312 1170.820312 794.300781 1170.738281 C 782.449219 1170.738281 770.609375 1173.21875 758.746094 1174.351562 C 753.769531 1174.996094 748.773438 1175.183594 743.761719 1174.914062 C 734.214844 1174.070312 724.667969 1171.527344 715.222656 1171.5 C 661.757812 1171.308594 608.289062 1171.832031 554.824219 1171.804688 C 403.644531 1171.722656 252.46875 1171.550781 101.296875 1171.296875 C 96.6875 1171.296875 92.066406 1171.296875 87.484375 1170.953125 C 75.59375 1169.972656 70.933594 1165.339844 70.03125 1153.84375 C 69.75 1150.179688 69.863281 1146.472656 69.851562 1142.792969 C 69.738281 1105.457031 69.519531 1068.121094 69.546875 1030.769531 C 69.640625 813.234375 69.746094 595.691406 69.863281 378.144531 C 69.863281 371.894531 69.242188 365.65625 68.886719 358.769531 L 41.070312 358.769531 C 40.675781 368.113281 40.011719 376.324219 40.011719 384.523438 C 39.726562 650.035156 39.472656 915.527344 39.261719 1180.996094 C 39.261719 1200.804688 39.402344 1200.804688 59.363281 1200.816406 C 262.625 1200.878906 465.878906 1200.953125 669.125 1201.046875 C 673.609375 1201.046875 678.039062 1201.414062 682.542969 1201.621094 C 684.25 1206.429688 685.511719 1210.363281 687.011719 1214.195312 C 692.308594 1227.714844 701.433594 1237.773438 714.941406 1243.246094 C 740.3125 1253.546875 765.414062 1252.589844 789.628906 1239.667969 C 801.429688 1233.304688 810.097656 1224.089844 812.222656 1210.046875 C 812.867188 1207.117188 813.679688 1204.238281 814.65625 1201.402344 C 1029.433594 1199.722656 1243.984375 1201.621094 1460.394531 1199.914062 Z M 99.933594 254.691406 C 99.640625 260.265625 99.195312 264.746094 99.183594 269.214844 C 99.03125 339.722656 98.910156 410.230469 98.824219 480.734375 C 98.824219 661.832031 98.867188 842.933594 98.953125 1024.035156 C 98.953125 1031.867188 98.558594 1039.695312 98.699219 1047.523438 C 98.902344 1058.765625 99.972656 1059.746094 111.671875 1060.253906 C 130.535156 1061.144531 149.453125 1061.4375 168.265625 1063.003906 C 215.992188 1066.976562 263.742188 1070.640625 311.363281 1076.078125 C 360.296875 1081.714844 409.105469 1088.71875 457.757812 1096.367188 C 508.679688 1104.375 559.355469 1113.898438 610.160156 1122.644531 C 616.527344 1123.726562 622.800781 1126.207031 629.703125 1123.800781 C 620.183594 1118.289062 610.304688 1113.519531 600.066406 1109.492188 C 540.988281 1086.058594 480.570312 1066.683594 419.683594 1048.503906 C 337.523438 1023.984375 254.539062 1003.390625 169.871094 989.667969 C 154.289062 987.121094 146.523438 978.617188 145.355469 962.589844 C 144.589844 952.050781 144.933594 941.40625 144.933594 930.765625 C 144.933594 710.027344 144.933594 489.300781 144.933594 268.578125 C 144.933594 264.125 144.449219 259.667969 144.15625 254.578125 Z M 541.292969 1142.449219 C 541.40625 1141.574219 541.535156 1140.695312 541.660156 1139.804688 C 537.460938 1138.757812 533.296875 1137.382812 529.035156 1136.695312 C 497.65625 1131.605469 466.300781 1126.511719 434.832031 1121.890625 C 341.800781 1108.195312 248.503906 1096.609375 154.699219 1090.613281 C 139.066406 1089.609375 123.394531 1089.113281 107.738281 1088.628906 C 98.699219 1088.347656 97.183594 1089.660156 96.851562 1098.648438 C 96.433594 1110.105469 96.648438 1121.675781 96.507812 1133.195312 C 96.417969 1140.097656 99.613281 1143.46875 106.578125 1143.1875 C 108.871094 1143.101562 111.1875 1143.1875 113.492188 1143.1875 C 252.203125 1143.1875 390.921875 1143.214844 529.644531 1143.265625 C 533.503906 1143.164062 537.359375 1142.691406 541.292969 1142.449219 Z M 967.289062 1137.5 C 967.390625 1138.773438 967.492188 1140.160156 967.578125 1141.496094 C 971.933594 1141.8125 976.273438 1142.398438 980.617188 1142.398438 C 995.816406 1142.398438 1011 1142.019531 1026.203125 1142.054688 C 1142.222656 1142.351562 1258.246094 1142.683594 1374.277344 1143.050781 C 1380.71875 1143.050781 1387.160156 1143.050781 1393.613281 1143.050781 C 1399.734375 1143.125 1403.070312 1140.59375 1403.007812 1134.074219 C 1402.878906 1122.109375 1403.238281 1110.128906 1402.867188 1098.164062 C 1402.601562 1089.46875 1400.726562 1087.980469 1391.792969 1088.15625 C 1383.976562 1088.324219 1376.183594 1089.175781 1368.367188 1089.429688 C 1307.558594 1091.339844 1247.140625 1097.628906 1186.890625 1105.535156 C 1131.695312 1112.765625 1076.625 1120.9375 1021.515625 1128.855469 C 1003.390625 1131.476562 985.300781 1134.609375 967.222656 1137.5 Z M 967.289062 1137.5 " fill-opacity="1" fill-rule="nonzero"/></g><path fill="#566e7e" d="M 938.351562 949.097656 L 918.097656 946.257812 C 921.152344 935.921875 923.0625 927.453125 926.132812 919.433594 C 944.347656 871.699219 962.652344 823.960938 981.378906 776.453125 C 983.378906 771.582031 984.703125 766.535156 985.351562 761.3125 C 986 756.085938 985.949219 750.871094 985.199219 745.660156 C 982.078125 721.992188 979.980469 698.214844 982.179688 674.078125 C 986.101562 631.089844 1005.859375 595.152344 1029.917969 560.949219 C 1030.617188 559.941406 1032.109375 559.484375 1033.382812 558.65625 C 1041.019531 568.382812 1043.015625 581.835938 1055.417969 590.023438 C 1056.128906 586.140625 1057.160156 583.328125 1057.085938 580.527344 C 1056.742188 567.171875 1056.585938 553.792969 1055.378906 540.503906 C 1054.613281 532.113281 1056.382812 525.101562 1061.539062 518.632812 C 1077.898438 498.136719 1092.984375 476.472656 1110.753906 457.300781 C 1147.671875 417.429688 1186.203125 379.011719 1230.59375 347.136719 C 1232.78125 345.570312 1235.046875 344.117188 1238.230469 342.042969 C 1240.457031 351.488281 1239.65625 361.277344 1249.613281 368.777344 C 1252.15625 358.59375 1255.316406 349.757812 1256.511719 340.65625 C 1257.925781 329.925781 1263.511719 323.941406 1272.78125 319.015625 C 1309.480469 299.5 1347.226562 282.8125 1387.859375 273.289062 C 1390.40625 272.703125 1393.039062 272.871094 1396.898438 272.601562 C 1387.578125 301.359375 1378.171875 328.613281 1364.28125 354.164062 C 1353.945312 373.167969 1343.34375 392.035156 1333.132812 411.105469 C 1330.078125 416.820312 1326.207031 420.128906 1319.589844 421.363281 C 1307.558594 423.605469 1295.730469 426.835938 1282.378906 429.996094 C 1289.941406 443.691406 1304.617188 437.875 1313.910156 446.542969 C 1303.179688 462.773438 1292.433594 479.257812 1281.460938 495.59375 C 1256.679688 532.261719 1231.882812 568.894531 1207.066406 605.488281 C 1201.390625 613.878906 1195.421875 622.039062 1189.792969 630.492188 C 1185.441406 637.023438 1179.609375 640.535156 1171.84375 642.011719 C 1160.109375 644.226562 1148.472656 647.105469 1136.953125 650.222656 C 1131.601562 651.890625 1126.808594 654.5625 1122.578125 658.242188 C 1135.386719 665.664062 1149.65625 663.589844 1165.378906 665.5625 C 1161.378906 672.09375 1158.683594 677.234375 1155.308594 681.882812 C 1149.445312 690.019531 1143.082031 697.746094 1136.21875 705.066406 C 1129.359375 712.382812 1122.054688 719.226562 1114.308594 725.597656 C 1106.5625 731.972656 1098.441406 737.820312 1089.9375 743.144531 C 1081.4375 748.46875 1072.628906 753.222656 1063.511719 757.410156 C 1049.765625 763.78125 1035.804688 769.722656 1021.632812 775.230469 C 1015.953125 777.421875 1012.71875 781.113281 1009.90625 786.089844 C 983.402344 832.695312 963.316406 882.085938 945.835938 932.636719 C 944.488281 936.542969 943.175781 940.476562 941.660156 944.324219 C 941.230469 945.492188 940.171875 946.539062 938.351562 949.097656 Z M 987.347656 777.867188 C 999.355469 781.683594 1005.882812 776.148438 1010.722656 768.574219 C 1017.085938 758.492188 1022.992188 748 1028.542969 737.398438 C 1056.550781 683.433594 1086.425781 630.566406 1120.429688 580.003906 C 1166.789062 511.046875 1215.964844 444.46875 1274.765625 385.441406 C 1280.925781 379.242188 1286.730469 372.710938 1292.460938 366.050781 C 1294.292969 363.953125 1295.375 361.191406 1296.789062 358.71875 C 1294.457031 359.277344 1292.246094 360.136719 1290.152344 361.300781 C 1288.058594 362.460938 1286.15625 363.886719 1284.453125 365.570312 C 1242 404.613281 1202.652344 446.660156 1164.90625 490.195312 C 1127.734375 533.09375 1095.492188 579.699219 1064.683594 627.308594 C 1037.351562 669.546875 1013.96875 713.871094 993.269531 759.699219 C 990.660156 765.3125 989.386719 771.476562 987.347656 777.867188 Z M 987.347656 777.867188 " fill-opacity="1" fill-rule="nonzero"/><path fill="#566e7e" d="M 1133.84375 400.867188 C 1122.667969 412.746094 1111.875 425.054688 1100.109375 436.296875 C 1096.433594 439.808594 1090.285156 441.144531 1085.027344 442.546875 C 1014.746094 461.246094 946.472656 485.699219 879.449219 513.835938 C 874.792969 515.78125 870.171875 518.417969 865.296875 519.128906 C 860.089844 519.894531 854.105469 520.019531 849.355469 518.164062 C 839.847656 514.433594 838.410156 503.535156 846.378906 497.082031 C 851.132812 493.402344 856.332031 490.535156 861.984375 488.488281 C 897.222656 475.148438 932.304688 461.308594 967.960938 449.179688 C 1009.257812 435.175781 1051.0625 422.445312 1092.714844 409.601562 C 1105.789062 405.554688 1119.207031 402.625 1132.457031 399.175781 Z M 1133.84375 400.867188 " fill-opacity="1" fill-rule="nonzero"/><path fill="#566e7e" d="M 1016.78125 537.089844 C 1007.550781 551.183594 1000.09375 563.035156 992.085938 574.492188 C 990.480469 576.796875 986.992188 578.070312 984.078125 579.125 C 946.152344 593 908.199219 606.800781 870.222656 620.523438 C 868.105469 621.410156 865.933594 622.121094 863.703125 622.664062 C 854.792969 624.382812 846.632812 620.484375 844.265625 613.523438 C 842.089844 607.15625 845.449219 599.519531 853.824219 595.828125 C 869.355469 589.039062 885.132812 582.789062 901.15625 577.078125 C 937.054688 564.347656 973.128906 552.023438 1009.144531 539.546875 C 1010.734375 539 1012.300781 538.515625 1016.78125 537.089844 Z M 1016.78125 537.089844 " fill-opacity="1" fill-rule="nonzero"/><path fill="#566e7e" d="M 954.9375 663.386719 C 954.9375 670.933594 955.039062 675.480469 954.9375 680.011719 C 954.53125 695.285156 954.316406 694.738281 939.269531 700.378906 C 916.925781 708.691406 894.867188 717.753906 872.730469 726.628906 C 866.121094 729.261719 859.59375 730.574219 852.628906 728.089844 C 843.589844 724.882812 840.078125 715.871094 846.265625 708.476562 C 848.308594 706.011719 850.625 703.832031 853.207031 701.945312 C 855.792969 700.054688 858.570312 698.511719 861.539062 697.3125 C 891.914062 685.804688 922.605469 675.019531 954.9375 663.386719 Z M 954.9375 663.386719 " fill-opacity="1" fill-rule="nonzero"/></svg>